<svg width="16" height="20" viewBox="0 0 16 20" fill="none" xmlns="http://www.w3.org/2000/svg">
<path d="M6.0998 1.60039C6.0998 1.21379 6.41321 0.900391 6.7998 0.900391H9.19981C9.5864 0.900391 9.89981 1.21379 9.89981 1.60039C9.89981 1.98699 9.5864 2.30039 9.19981 2.30039H6.7998C6.41321 2.30039 6.0998 1.98699 6.0998 1.60039ZM1.2998 4.00039C1.2998 3.11058 1.91147 2.36363 2.73728 2.15708C3.00892 4.15813 4.72425 5.70039 6.7998 5.70039H9.19981C11.2754 5.70039 12.9907 4.15813 13.2623 2.15708C14.0881 2.36363 14.6998 3.11058 14.6998 4.00039V17.2004C14.6998 18.2497 13.8491 19.1004 12.7998 19.1004H3.19981C2.15046 19.1004 1.2998 18.2497 1.2998 17.2004V4.00039ZM4.3998 8.30039C3.46092 8.30039 2.6998 9.06151 2.6998 10.0004C2.6998 10.9393 3.46092 11.7004 4.3998 11.7004H4.41181C5.35069 11.7004 6.1118 10.9393 6.1118 10.0004C6.1118 9.06151 5.35069 8.30039 4.41181 8.30039H4.3998ZM7.9998 8.30039C7.06092 8.30039 6.2998 9.06151 6.2998 10.0004C6.2998 10.9393 7.06092 11.7004 7.9998 11.7004H11.5998C12.5387 11.7004 13.2998 10.9393 13.2998 10.0004C13.2998 9.06151 12.5387 8.30039 11.5998 8.30039H7.9998ZM4.3998 13.1004C3.46092 13.1004 2.6998 13.8615 2.6998 14.8004C2.6998 15.7393 3.46092 16.5004 4.3998 16.5004H4.41181C5.35069 16.5004 6.1118 15.7393 6.1118 14.8004C6.1118 13.8615 5.35069 13.1004 4.41181 13.1004H4.3998ZM7.9998 13.1004C7.06092 13.1004 6.2998 13.8615 6.2998 14.8004C6.2998 15.7393 7.06092 16.5004 7.9998 16.5004H11.5998C12.5387 16.5004 13.2998 15.7393 13.2998 14.8004C13.2998 13.8615 12.5387 13.1004 11.5998 13.1004H7.9998Z" fill="currentColor" stroke="none"/>
</svg>
