<svg width="18" height="18" viewBox="0 0 18 18" fill="none" xmlns="http://www.w3.org/2000/svg">
<path d="M6.50116 9.00018L8.16783 10.6668L11.5012 7.33352M5.53011 2.91439C6.12805 2.86667 6.69571 2.63154 7.15226 2.24247C8.21766 1.33454 9.78466 1.33454 10.8501 2.24247C11.3066 2.63154 11.8743 2.86667 12.4722 2.91439C13.8676 3.02574 14.9756 4.13377 15.087 5.52913C15.1347 6.12708 15.3698 6.69473 15.7589 7.15128C16.6668 8.21669 16.6668 9.78368 15.7589 10.8491C15.3698 11.3056 15.1347 11.8733 15.087 12.4712C14.9756 13.8666 13.8676 14.9746 12.4722 15.086C11.8743 15.1337 11.3066 15.3688 10.8501 15.7579C9.78466 16.6658 8.21766 16.6658 7.15226 15.7579C6.69571 15.3688 6.12805 15.1337 5.53011 15.086C4.13475 14.9746 3.02672 13.8666 2.91537 12.4712C2.86765 11.8733 2.63252 11.3056 2.24345 10.8491C1.33552 9.78368 1.33552 8.21669 2.24345 7.15128C2.63252 6.69473 2.86765 6.12708 2.91537 5.52913C3.02672 4.13377 4.13475 3.02574 5.53011 2.91439Z" stroke="#374151" stroke-width="2" stroke-linecap="round" stroke-linejoin="round"/>
</svg>
