<svg width="20" height="19" viewBox="0 0 20 19" fill="none" xmlns="http://www.w3.org/2000/svg">
<path d="M6.75394 14.6465L6.6075 14.5001H6.40039H2.80039C1.75105 14.5001 0.900391 13.6494 0.900391 12.6001V3.0001C0.900391 1.95076 1.75105 1.1001 2.80039 1.1001H17.2004C18.2497 1.1001 19.1004 1.95076 19.1004 3.0001V12.6001C19.1004 13.6494 18.2497 14.5001 17.2004 14.5001H13.6004H13.3933L13.2468 14.6465L10.0004 17.893L6.75394 14.6465ZM5.20039 3.7001C4.26151 3.7001 3.50039 4.46121 3.50039 5.4001C3.50039 6.33898 4.26151 7.1001 5.20039 7.1001H14.8004C15.7393 7.1001 16.5004 6.33898 16.5004 5.4001C16.5004 4.46121 15.7393 3.7001 14.8004 3.7001H5.20039ZM5.20039 8.5001C4.26151 8.5001 3.50039 9.26121 3.50039 10.2001C3.50039 11.139 4.26151 11.9001 5.20039 11.9001H8.80039C9.73928 11.9001 10.5004 11.139 10.5004 10.2001C10.5004 9.26121 9.73927 8.5001 8.80039 8.5001H5.20039Z" fill="currentColor" stroke="currentColor"/>
</svg>
