<svg width="24" height="24" viewBox="0 0 24 24" fill="none" xmlns="http://www.w3.org/2000/svg">
<g id="Icon/Solid/briefcase">
<g id="Icon">
<path fill-rule="evenodd" clip-rule="evenodd" d="M7.19844 7.1999V5.9999C7.19844 4.01168 8.81021 2.3999 10.7984 2.3999H13.1984C15.1867 2.3999 16.7984 4.01168 16.7984 5.9999V7.1999H19.1984C20.5239 7.1999 21.5984 8.27442 21.5984 9.5999V13.8848C18.61 14.9936 15.3763 15.5998 11.9985 15.5998C8.62061 15.5998 5.38688 14.9936 2.39844 13.8848V9.5999C2.39844 8.27442 3.47295 7.1999 4.79844 7.1999H7.19844ZM9.59844 5.9999C9.59844 5.33716 10.1357 4.7999 10.7984 4.7999H13.1984C13.8612 4.7999 14.3984 5.33716 14.3984 5.9999V7.1999H9.59844V5.9999ZM10.7984 11.9999C10.7984 11.3372 11.3357 10.7999 11.9984 10.7999H12.0104C12.6732 10.7999 13.2104 11.3372 13.2104 11.9999C13.2104 12.6626 12.6732 13.1999 12.0104 13.1999H11.9984C11.3357 13.1999 10.7984 12.6626 10.7984 11.9999Z" fill="currentColor"/>
<path d="M2.39844 16.4306V19.1999C2.39844 20.5254 3.47295 21.5999 4.79844 21.5999H19.1984C20.5239 21.5999 21.5984 20.5254 21.5984 19.1999V16.4306C18.5831 17.4484 15.3541 17.9998 11.9985 17.9998C8.64279 17.9998 5.41379 17.4484 2.39844 16.4306Z" fill="#F9FAFB"/>
</g>
</g>
</svg>
