<svg width="20" height="18" viewBox="0 0 20 18" fill="none" xmlns="http://www.w3.org/2000/svg">
<path d="M5.70039 1.8001C5.70039 1.4135 6.01379 1.1001 6.40039 1.1001H13.6004C13.987 1.1001 14.3004 1.4135 14.3004 1.8001C14.3004 2.1867 13.987 2.5001 13.6004 2.5001H6.40039C6.01379 2.5001 5.70039 2.1867 5.70039 1.8001ZM3.30039 5.4001C3.30039 5.0135 3.61379 4.7001 4.00039 4.7001H16.0004C16.387 4.7001 16.7004 5.0135 16.7004 5.4001C16.7004 5.7867 16.387 6.1001 16.0004 6.1001H4.00039C3.61379 6.1001 3.30039 5.7867 3.30039 5.4001ZM0.900391 10.2001C0.900391 9.15076 1.75105 8.3001 2.80039 8.3001H17.2004C18.2497 8.3001 19.1004 9.15076 19.1004 10.2001V15.0001C19.1004 16.0494 18.2497 16.9001 17.2004 16.9001H2.80039C1.75105 16.9001 0.900391 16.0494 0.900391 15.0001V10.2001Z" fill="currentColor" stroke="currentColor"/>
</svg>
