<svg width="20" height="18" viewBox="0 0 20 18" fill="none" xmlns="http://www.w3.org/2000/svg">
<path fill-rule="evenodd" clip-rule="evenodd" d="M1.59961 0.600097C2.26235 0.600097 2.79961 1.13736 2.79961 1.8001L2.79961 16.2001C2.79961 16.8628 2.26235 17.4001 1.59961 17.4001C0.936866 17.4001 0.399608 16.8628 0.399608 16.2001L0.399609 1.8001C0.399609 1.13736 0.936867 0.600097 1.59961 0.600097ZM10.8481 4.55157C11.3168 5.0202 11.3168 5.78 10.8481 6.24862L9.29667 7.8001L18.3996 7.8001C19.0624 7.8001 19.5996 8.33735 19.5996 9.0001C19.5996 9.66284 19.0624 10.2001 18.3996 10.2001L9.29666 10.2001L10.8481 11.7516C11.3168 12.2202 11.3168 12.98 10.8481 13.4486C10.3795 13.9173 9.61971 13.9173 9.15108 13.4486L5.55108 9.84862C5.32604 9.62358 5.19961 9.31836 5.19961 9.0001C5.19961 8.68184 5.32604 8.37661 5.55108 8.15157L9.15108 4.55157C9.61971 4.08294 10.3795 4.08294 10.8481 4.55157Z" fill="currentColor"/>
</svg>
