<svg width="80" height="80" viewBox="0 0 80 80" fill="none" xmlns="http://www.w3.org/2000/svg">
<g id="mdi:null-off">
<path id="Vector" d="M73.6992 71.5333L7.96589 5.7666L3.69922 9.99993L13.5326 19.8333C9.08829 25.6175 6.67484 32.7055 6.66589 39.9999C6.66589 58.3333 21.6659 73.3333 39.9992 73.3333C47.5992 73.3333 54.5659 70.7666 60.1659 66.4666L69.4659 75.7666L73.6992 71.5333ZM39.9992 66.6666C25.2659 66.6666 13.3326 54.7333 13.3326 39.9999C13.3326 34.2333 15.1992 28.9333 18.3326 24.5999L55.3992 61.6666C50.9311 64.9341 45.5346 66.6862 39.9992 66.6666ZM27.2326 16.5666L22.3992 11.6666C27.4992 8.53327 33.5326 6.6666 39.9992 6.6666C58.3326 6.6666 73.3326 21.6666 73.3326 39.9999C73.3326 46.4666 71.4659 52.4999 68.3326 57.5999L63.4326 52.7666C65.4992 48.9666 66.6659 44.6333 66.6659 39.9999C66.6659 25.2666 54.7326 13.3333 39.9992 13.3333C35.3659 13.3333 31.0326 14.4999 27.2326 16.5666Z" fill="#E5E7EB"/>
</g>
</svg>
