<svg width="19" height="19" viewBox="0 0 19 19" fill="none" xmlns="http://www.w3.org/2000/svg">
<path d="M0.600098 2.99961C0.600098 2.36309 0.852954 1.75264 1.30304 1.30255C1.75313 0.852466 2.36358 0.599609 3.0001 0.599609C3.0001 1.55439 3.37938 2.47006 4.05451 3.14519C4.72964 3.82032 5.64532 4.19961 6.6001 4.19961H9.0001C9.95488 4.19961 10.8706 3.82032 11.5457 3.14519C12.2208 2.47006 12.6001 1.55439 12.6001 0.599609C13.2366 0.599609 13.8471 0.852466 14.2972 1.30255C14.7472 1.75264 15.0001 2.36309 15.0001 2.99961V10.1996H9.4969L11.0485 8.64801C11.2671 8.42169 11.388 8.11856 11.3853 7.80393C11.3826 7.48929 11.2564 7.18832 11.0339 6.96583C10.8114 6.74334 10.5104 6.61714 10.1958 6.6144C9.88114 6.61167 9.57802 6.73262 9.3517 6.95121L5.7517 10.5512C5.52673 10.7762 5.40035 11.0814 5.40035 11.3996C5.40035 11.7178 5.52673 12.023 5.7517 12.248L9.3517 15.848C9.57802 16.0666 9.88114 16.1876 10.1958 16.1848C10.5104 16.1821 10.8114 16.0559 11.0339 15.8334C11.2564 15.6109 11.3826 15.3099 11.3853 14.9953C11.388 14.6807 11.2671 14.3775 11.0485 14.1512L9.4969 12.5996H15.0001V16.1996C15.0001 16.8361 14.7472 17.4466 14.2972 17.8967C13.8471 18.3468 13.2366 18.5996 12.6001 18.5996H3.0001C2.36358 18.5996 1.75313 18.3468 1.30304 17.8967C0.852954 17.4466 0.600098 16.8361 0.600098 16.1996V2.99961ZM15.0001 10.1996H17.4001C17.7184 10.1996 18.0236 10.326 18.2486 10.5511C18.4737 10.7761 18.6001 11.0814 18.6001 11.3996C18.6001 11.7179 18.4737 12.0231 18.2486 12.2481C18.0236 12.4732 17.7184 12.5996 17.4001 12.5996H15.0001V10.1996Z" fill="currentColor"/>
</svg>
