<svg width="80" height="81" viewBox="0 0 80 81" fill="none" xmlns="http://www.w3.org/2000/svg">
<path d="M73.6992 72.0333L7.96589 6.2666L3.69922 10.4999L13.5326 20.3333C9.08829 26.1175 6.67484 33.2055 6.66589 40.4999C6.66589 58.8333 21.6659 73.8333 39.9992 73.8333C47.5992 73.8333 54.5659 71.2666 60.1659 66.9666L69.4659 76.2666L73.6992 72.0333ZM39.9992 67.1666C25.2659 67.1666 13.3326 55.2333 13.3326 40.4999C13.3326 34.7333 15.1992 29.4333 18.3326 25.0999L55.3992 62.1666C50.9311 65.4341 45.5346 67.1862 39.9992 67.1666ZM27.2326 17.0666L22.3992 12.1666C27.4992 9.03327 33.5326 7.1666 39.9992 7.1666C58.3326 7.1666 73.3326 22.1666 73.3326 40.4999C73.3326 46.9666 71.4659 52.9999 68.3326 58.0999L63.4326 53.2666C65.4992 49.4666 66.6659 45.1333 66.6659 40.4999C66.6659 25.7666 54.7326 13.8333 39.9992 13.8333C35.3659 13.8333 31.0326 14.9999 27.2326 17.0666Z" fill="#E5E7EB"/>
</svg>
