<svg width="22" height="19" viewBox="0 0 22 19" fill="none" xmlns="http://www.w3.org/2000/svg">
<path d="M14.6002 4.19961C14.6002 6.18783 12.9884 7.79961 11.0002 7.79961C9.01197 7.79961 7.4002 6.18783 7.4002 4.19961C7.4002 2.21138 9.01197 0.599609 11.0002 0.599609C12.9884 0.599609 14.6002 2.21138 14.6002 4.19961Z" fill="currentColor"/>
<path d="M20.6002 6.59961C20.6002 7.92509 19.5257 8.99961 18.2002 8.99961C16.8747 8.99961 15.8002 7.92509 15.8002 6.59961C15.8002 5.27413 16.8747 4.19961 18.2002 4.19961C19.5257 4.19961 20.6002 5.27413 20.6002 6.59961Z" fill="currentColor"/>
<path d="M15.8002 14.9996C15.8002 12.3486 13.6512 10.1996 11.0002 10.1996C8.34923 10.1996 6.20019 12.3486 6.20019 14.9996V18.5996H15.8002V14.9996Z" fill="currentColor"/>
<path d="M6.20019 6.59961C6.20019 7.92509 5.12568 8.99961 3.8002 8.99961C2.47471 8.99961 1.4002 7.92509 1.4002 6.59961C1.4002 5.27413 2.47471 4.19961 3.8002 4.19961C5.12568 4.19961 6.20019 5.27413 6.20019 6.59961Z" fill="currentColor"/>
<path d="M18.2002 18.5996V14.9996C18.2002 13.7346 17.874 12.5459 17.3011 11.5128C17.5885 11.4389 17.8897 11.3996 18.2002 11.3996C20.1884 11.3996 21.8002 13.0114 21.8002 14.9996V18.5996H18.2002Z" fill="currentColor"/>
<path d="M4.69931 11.5128C4.12641 12.5459 3.8002 13.7346 3.8002 14.9996V18.5996H0.200195V14.9996C0.200195 13.0114 1.81197 11.3996 3.8002 11.3996C4.11065 11.3996 4.41192 11.4389 4.69931 11.5128Z" fill="currentColor"/>
</svg>
