<svg width="20" height="18" viewBox="0 0 20 18" fill="none" xmlns="http://www.w3.org/2000/svg">
<path d="M7.5999 7.79961C9.58813 7.79961 11.1999 6.18783 11.1999 4.19961C11.1999 2.21138 9.58813 0.599609 7.5999 0.599609C5.61168 0.599609 3.9999 2.21138 3.9999 4.19961C3.9999 6.18783 5.61168 7.79961 7.5999 7.79961Z" fill="currentColor"/>
<path d="M7.5999 10.1996C11.5764 10.1996 14.7999 13.4232 14.7999 17.3996H0.399902C0.399902 13.4232 3.62345 10.1996 7.5999 10.1996Z" fill="currentColor"/>
<path d="M17.1999 5.39961C17.1999 4.73687 16.6626 4.19961 15.9999 4.19961C15.3372 4.19961 14.7999 4.73687 14.7999 5.39961V6.59961H13.5999C12.9372 6.59961 12.3999 7.13687 12.3999 7.79961C12.3999 8.46235 12.9372 8.99961 13.5999 8.99961H14.7999V10.1996C14.7999 10.8623 15.3372 11.3996 15.9999 11.3996C16.6626 11.3996 17.1999 10.8623 17.1999 10.1996V8.99961H18.3999C19.0626 8.99961 19.5999 8.46235 19.5999 7.79961C19.5999 7.13687 19.0626 6.59961 18.3999 6.59961H17.1999V5.39961Z" fill="currentColor"/>
</svg>
