<svg width="20" height="16" viewBox="0 0 20 16" fill="none" xmlns="http://www.w3.org/2000/svg">
<path d="M0.900391 3.19981C0.900391 2.15046 1.75105 1.2998 2.80039 1.2998H17.2004C18.2497 1.2998 19.1004 2.15046 19.1004 3.1998V3.8998H0.900391V3.19981ZM0.900391 12.7998V7.2998H19.1004V12.7998C19.1004 13.8491 18.2497 14.6998 17.2004 14.6998H2.80039C1.75105 14.6998 0.900391 13.8491 0.900391 12.7998ZM4.00039 9.89981C3.06151 9.89981 2.30039 10.6609 2.30039 11.5998C2.30039 12.5387 3.06151 13.2998 4.00039 13.2998H5.20039C6.13927 13.2998 6.90039 12.5387 6.90039 11.5998C6.90039 10.6609 6.13928 9.89981 5.20039 9.89981H4.00039ZM8.80039 9.89981C7.86151 9.89981 7.10039 10.6609 7.10039 11.5998C7.10039 12.5387 7.86151 13.2998 8.80039 13.2998H10.0004C10.9393 13.2998 11.7004 12.5387 11.7004 11.5998C11.7004 10.6609 10.9393 9.89981 10.0004 9.89981H8.80039Z" fill="currentColor" stroke="currentColor"/>
</svg>
