<svg width="20" height="18" viewBox="0 0 20 18" fill="none" xmlns="http://www.w3.org/2000/svg">
<path d="M10.6999 4.19961C10.6999 5.91169 9.31199 7.29961 7.5999 7.29961C5.88782 7.29961 4.4999 5.91169 4.4999 4.19961C4.4999 2.48753 5.88782 1.09961 7.5999 1.09961C9.31199 1.09961 10.6999 2.48753 10.6999 4.19961ZM7.5999 10.6996C11.132 10.6996 14.0258 13.4328 14.2815 16.8996H0.918277C1.17403 13.4328 4.06778 10.6996 7.5999 10.6996ZM12.8999 7.79961C12.8999 7.41301 13.2133 7.09961 13.5999 7.09961H18.3999C18.7865 7.09961 19.0999 7.41301 19.0999 7.79961C19.0999 8.18621 18.7865 8.49961 18.3999 8.49961H13.5999C13.2133 8.49961 12.8999 8.18621 12.8999 7.79961Z" fill="currentColor" stroke="currentColor"/>
</svg>
