<svg width="20" height="21" viewBox="0 0 20 21" fill="none" xmlns="http://www.w3.org/2000/svg">
<path d="M8.33407 8.83333H4.36413C3.12516 8.83333 2.31933 10.1372 2.87342 11.2454L5.79008 17.0787C6.0724 17.6433 6.64951 18 7.2808 18H10.6289C10.7652 18 10.9009 17.9833 11.0331 17.9502L14.1674 17.1667M8.33407 8.83333V4.66667C8.33407 3.74619 9.08026 3 10.0007 3H10.0803C10.4966 3 10.8341 3.33748 10.8341 3.75377C10.8341 4.34903 11.0103 4.93096 11.3405 5.42624L14.1674 9.66667V17.1667M8.33407 8.83333H10.0007M14.1674 17.1667H15.8341C16.7545 17.1667 17.5007 16.4205 17.5007 15.5V10.5C17.5007 9.57953 16.7545 8.83333 15.8341 8.83333H13.7507" stroke="#374151" stroke-width="2" stroke-linecap="round" stroke-linejoin="round"/>
</svg>
