<svg width="18" height="18" viewBox="0 0 18 18" fill="none" xmlns="http://www.w3.org/2000/svg">
<g id="Icon/Solid/dots-vertical">
<path id="Icon" d="M8.99922 4.8998C8.28125 4.8998 7.69922 4.31778 7.69922 3.5998C7.69922 2.88183 8.28125 2.2998 8.99922 2.2998C9.71719 2.2998 10.2992 2.88183 10.2992 3.5998C10.2992 4.31778 9.71719 4.8998 8.99922 4.8998ZM8.99922 10.2998C8.28125 10.2998 7.69922 9.71777 7.69922 8.9998C7.69922 8.28183 8.28125 7.6998 8.99922 7.6998C9.71719 7.6998 10.2992 8.28184 10.2992 8.9998C10.2992 9.71777 9.71719 10.2998 8.99922 10.2998ZM8.99922 15.6998C8.28125 15.6998 7.69922 15.1178 7.69922 14.3998C7.69922 13.6818 8.28125 13.0998 8.99922 13.0998C9.71719 13.0998 10.2992 13.6818 10.2992 14.3998C10.2992 15.1178 9.71719 15.6998 8.99922 15.6998Z" fill="#1F2937" stroke="#374151"/>
</g>
</svg>
